<svg width="45" height="46" viewBox="0 0 45 46" fill="none" xmlns="http://www.w3.org/2000/svg">
<circle cx="22" cy="22" r="14" fill="#333333"/>
<path fill-rule="evenodd" clip-rule="evenodd" d="M30.5613 35.5613C27.4183 37.73 23.6075 39 19.5 39C8.73045 39 0 30.2696 0 19.5C0 8.73045 8.73045 0 19.5 0C30.2696 0 39 8.73045 39 19.5C39 24.3577 37.2238 28.8005 34.2854 32.2144L43.7678 41.6967C44.7441 42.673 44.7441 44.2559 43.7678 45.2322C42.7914 46.2085 41.2085 46.2085 40.2322 45.2322L30.5613 35.5613ZM34 19.5C34 27.5081 27.5081 34 19.5 34C11.4919 34 5 27.5081 5 19.5C5 11.4919 11.4919 5 19.5 5C27.5081 5 34 11.4919 34 19.5Z" fill="white"/>
</svg>
