<svg width="18" height="18" viewBox="0 0 18 18" fill="none" xmlns="http://www.w3.org/2000/svg">
<path d="M8.99138 0.346191C4.21446 0.346191 0.346191 4.22311 0.346191 9.00004C0.346191 13.777 4.21446 17.6539 8.99138 17.6539C13.777 17.6539 17.6539 13.777 17.6539 9.00004C17.6539 4.22311 13.777 0.346191 8.99138 0.346191ZM9.00004 15.9231C5.17504 15.9231 2.07696 12.825 2.07696 9.00004C2.07696 5.17504 5.17504 2.07696 9.00004 2.07696C12.825 2.07696 15.9231 5.17504 15.9231 9.00004C15.9231 12.825 12.825 15.9231 9.00004 15.9231Z" fill="#ACB2B7"/>
<path d="M9.43272 4.67346H8.13464V9.86577L12.6779 12.5917L13.327 11.5273L9.43272 9.21673V4.67346Z" fill="#ACB2B7"/>
</svg>
